{
  "source": "C:\\Users\\Peter\\Desktop\\stuff\\MIUN\\quantitative_research\\video_compression\\videos\\HEVC_CLASS_B\\ParkScene_1920x1080_24.y4m",
  "output": "C:\\Users\\Peter\\Desktop\\stuff\\MIUN\\quantitative_research\\video_compression\\compressed_videos\\HEVC_CLASS_B\\hevc\\4\\ParkScene_1920x1080_24_hevc.mp4",
  "codec": "hevc",
  "ok": "Input #0, yuv4mpegpipe, from 'C:\\Users\\Peter\\Desktop\\stuff\\MIUN\\quantitative_research\\video_compression\\videos\\HEVC_CLASS_B\\ParkScene_1920x1080_24.y4m':\n  Duration: 00:00:10.00, start: 0.000000, bitrate: 597198 kb/s\n  Stream #0:0: Video: rawvideo (I420 / 0x30323449), yuv420p(progressive), 1920x1080, 24 fps, 24 tbr, 24 tbn\n[out#0/mp4 @ 000001f11627b680] Codec AVOption b:a (set bitrate (in bits/s)) has not been used for any stream. The most likely reason is either wrong type (e.g. a video option with no video streams) or that it is a private option of some decoder which was not actually used for any stream.\nStream mapping:\n  Stream #0:0 -> #0:0 (rawvideo (native) -> hevc (libx265))\nPress [q] to stop, [?] for help\n[libx265 @ 000001f11627cac0] Unknown option: \"aq-mode.\nx265 [info]: HEVC encoder version 4.1+190-8f11c33ac\nx265 [info]: build info [Windows][GCC 15.1.0][64 bit] 10bit\nx265 [info]: using cpu capabilities: MMX2 SSE2Fast LZCNT SSSE3 SSE4.2 AVX FMA3 BMI2 AVX2\nx265 [info]: Main 10 profile, Level-4 (Main tier)\nx265 [info]: Thread pool created using 12 threads\nx265 [info]: Slices                              : 1\nx265 [info]: frame threads / pool features       : 3 / wpp(17 rows)\nx265 [info]: Coding QT: max CU size, min CU size : 64 / 8\nx265 [info]: Residual QT: max TU size, max depth : 32 / 1 inter / 1 intra\nx265 [info]: ME / range / subpel / merge         : star / 57 / 3 / 3\nx265 [info]: Keyframe min / max / scenecut / bias  : 24 / 250 / 40 / 5.00 \nx265 [info]: Lookahead / bframes / badapt        : 25 / 4 / 2\nx265 [info]: b-pyramid / weightp / weightb       : 1 / 1 / 0\nx265 [info]: References / ref-limit  cu / depth  : 4 / on / on\nx265 [info]: AQ: mode / str / qg-size / cu-tree  : 2 / 1.0 / 32 / 1\nx265 [info]: Rate Control / qCompress            : ABR-4000 kbps / 0.60\nx265 [info]: VBV/HRD buffer / max-rate / init    : 4000 / 4000 / 0.750\nx265 [info]: tools: rect limit-modes rd=4 psy-rd=2.00 rdoq=2 psy-rdoq=1.00\nx265 [info]: tools: rskip mode=1 signhide tmvp strong-intra-smoothing lslices=4\nx265 [info]: tools: deblock sao dhdr10-info\nOutput #0, mp4, to 'C:\\Users\\Peter\\Desktop\\stuff\\MIUN\\quantitative_research\\video_compression\\compressed_videos\\HEVC_CLASS_B\\hevc\\4\\ParkScene_1920x1080_24_hevc.mp4':\n  Metadata:\n    encoder         : Lavf62.3.100\n  Stream #0:0: Video: hevc (hev1 / 0x31766568), yuv420p10le(tv, progressive), 1920x1080, q=2-31, 4000 kb/s, 24 fps, 12288 tbn\n    Metadata:\n      encoder         : Lavc62.11.100 libx265\n    Side data:\n      cpb: bitrate max/min/avg: 4000000/0/4000000 buffer size: 4000000 vbv_delay: N/A\nframe=    0 fps=0.0 q=0.0 size=       0KiB time=N/A bitrate=N/A speed=N/A elapsed=0:00:00.53    \nframe=    0 fps=0.0 q=0.0 size=       0KiB time=N/A bitrate=N/A speed=N/A elapsed=0:00:01.06    \nframe=    0 fps=0.0 q=0.0 size=       0KiB time=N/A bitrate=N/A speed=N/A elapsed=0:00:01.59    \nframe=    0 fps=0.0 q=0.0 size=       0KiB time=N/A bitrate=N/A speed=N/A elapsed=0:00:02.12    \nframe=    0 fps=0.0 q=0.0 size=       0KiB time=N/A bitrate=N/A speed=N/A elapsed=0:00:02.64    \nframe=    0 fps=0.0 q=0.0 size=       0KiB time=N/A bitrate=N/A speed=N/A elapsed=0:00:03.15    \nframe=    0 fps=0.0 q=0.0 size=       0KiB time=N/A bitrate=N/A speed=N/A elapsed=0:00:03.67    \nframe=    0 fps=0.0 q=0.0 size=       0KiB time=N/A bitrate=N/A speed=N/A elapsed=0:00:04.18    \nframe=    0 fps=0.0 q=0.0 size=       0KiB time=N/A bitrate=N/A speed=N/A elapsed=0:00:04.70    \nframe=    0 fps=0.0 q=0.0 size=       0KiB time=N/A bitrate=N/A speed=N/A elapsed=0:00:05.24    \nframe=    0 fps=0.0 q=0.0 size=       0KiB time=N/A bitrate=N/A speed=N/A elapsed=0:00:05.77    \nframe=    0 fps=0.0 q=0.0 size=       0KiB time=N/A bitrate=N/A speed=N/A elapsed=0:00:06.30    \nframe=    0 fps=0.0 q=0.0 size=       0KiB time=N/A bitrate=N/A speed=N/A elapsed=0:00:06.85    \nframe=    0 fps=0.0 q=0.0 size=       0KiB time=N/A bitrate=N/A speed=N/A elapsed=0:00:07.38    \nframe=    1 fps=0.1 q=26.8 size=       0KiB time=-00:00:00.04 bitrate=N/A speed=N/A elapsed=0:00:07.90    \nframe=    2 fps=0.2 q=32.9 size=       0KiB time=00:00:00.00 bitrate=N/A speed=   0x elapsed=0:00:08.42    \nframe=    3 fps=0.3 q=36.5 size=       0KiB time=00:00:00.04 bitrate=   8.4kbits/s speed=0.00466x elapsed=0:00:08.94    \nframe=    3 fps=0.3 q=36.5 size=       0KiB time=00:00:00.04 bitrate=   8.4kbits/s speed=0.00441x elapsed=0:00:09.45    \nframe=    4 fps=0.4 q=39.4 size=       0KiB time=00:00:00.04 bitrate=   8.4kbits/s speed=0.00417x elapsed=0:00:09.99    \nframe=    4 fps=0.4 q=39.4 size=       0KiB time=00:00:00.08 bitrate=   4.2kbits/s speed=0.00792x elapsed=0:00:10.51    \nframe=    4 fps=0.4 q=39.4 size=       0KiB time=00:00:00.08 bitrate=   4.2kbits/s speed=0.00756x elapsed=0:00:11.02    \nframe=    5 fps=0.4 q=37.0 size=       0KiB time=00:00:00.12 bitrate=   2.8kbits/s speed=0.0108x elapsed=0:00:11.54    \nframe=    5 fps=0.4 q=37.0 size=       0KiB time=00:00:00.12 bitrate=   2.8kbits/s speed=0.0103x elapsed=0:00:12.07    \nframe=    7 fps=0.6 q=33.8 size=       0KiB time=00:00:00.20 bitrate=   1.7kbits/s speed=0.0165x elapsed=0:00:12.59    \nframe=    7 fps=0.5 q=33.8 size=       0KiB time=00:00:00.20 bitrate=   1.7kbits/s speed=0.0159x elapsed=0:00:13.11    \nframe=    7 fps=0.5 q=33.8 size=       0KiB time=00:00:00.20 bitrate=   1.7kbits/s speed=0.0153x elapsed=0:00:13.62    \nframe=    7 fps=0.5 q=33.8 size=       0KiB time=00:00:00.20 bitrate=   1.7kbits/s speed=0.0147x elapsed=0:00:14.14    \nframe=    8 fps=0.5 q=34.0 size=       0KiB time=00:00:00.25 bitrate=   1.4kbits/s speed=0.0171x elapsed=0:00:14.65    \nframe=    8 fps=0.5 q=34.0 size=       0KiB time=00:00:00.25 bitrate=   1.4kbits/s speed=0.0164x elapsed=0:00:15.20    \nframe=    9 fps=0.6 q=34.1 size=       0KiB time=00:00:00.29 bitrate=   1.2kbits/s speed=0.0185x elapsed=0:00:15.72    \nframe=   10 fps=0.6 q=28.3 size=       0KiB time=00:00:00.33 bitrate=   1.1kbits/s speed=0.0205x elapsed=0:00:16.25    \nframe=   10 fps=0.6 q=28.3 size=       0KiB time=00:00:00.33 bitrate=   1.1kbits/s speed=0.0199x elapsed=0:00:16.78    \nframe=   11 fps=0.6 q=32.7 size=     256KiB time=00:00:00.37 bitrate=5593.3kbits/s speed=0.0217x elapsed=0:00:17.30    \nframe=   11 fps=0.6 q=32.7 size=     256KiB time=00:00:00.37 bitrate=5593.3kbits/s speed=0.021x elapsed=0:00:17.82    \nframe=   11 fps=0.6 q=32.7 size=     256KiB time=00:00:00.37 bitrate=5593.3kbits/s speed=0.0204x elapsed=0:00:18.34    \nframe=   11 fps=0.6 q=32.7 size=     256KiB time=00:00:00.37 bitrate=5593.3kbits/s speed=0.0199x elapsed=0:00:18.87    \nframe=   12 fps=0.6 q=34.2 size=     256KiB time=00:00:00.41 bitrate=5034.0kbits/s speed=0.0215x elapsed=0:00:19.40    \nframe=   12 fps=0.6 q=34.2 size=     256KiB time=00:00:00.41 bitrate=5034.0kbits/s speed=0.0209x elapsed=0:00:19.94    \nframe=   13 fps=0.6 q=34.8 size=     256KiB time=00:00:00.45 bitrate=4576.4kbits/s speed=0.0224x elapsed=0:00:20.48    \nframe=   13 fps=0.6 q=34.8 size=     256KiB time=00:00:00.45 bitrate=4576.4kbits/s speed=0.0218x elapsed=0:00:21.01    \nframe=   14 fps=0.6 q=28.4 size=     256KiB time=00:00:00.50 bitrate=4195.0kbits/s speed=0.0232x elapsed=0:00:21.54    \nframe=   15 fps=0.7 q=33.4 size=     256KiB time=00:00:00.54 bitrate=3872.3kbits/s speed=0.0245x elapsed=0:00:22.07    \nframe=   15 fps=0.7 q=33.4 size=     256KiB time=00:00:00.54 bitrate=3872.3kbits/s speed=0.024x elapsed=0:00:22.60    \nframe=   16 fps=0.7 q=34.7 size=     256KiB time=00:00:00.58 bitrate=3595.7kbits/s speed=0.0252x elapsed=0:00:23.13    \nframe=   16 fps=0.7 q=34.7 size=     256KiB time=00:00:00.58 bitrate=3595.7kbits/s speed=0.0247x elapsed=0:00:23.64    \nframe=   16 fps=0.7 q=34.7 size=     256KiB time=00:00:00.58 bitrate=3595.7kbits/s speed=0.0241x elapsed=0:00:24.16    \nframe=   17 fps=0.7 q=35.1 size=     256KiB time=00:00:00.62 bitrate=3356.0kbits/s speed=0.0253x elapsed=0:00:24.68    \nframe=   17 fps=0.7 q=35.1 size=     256KiB time=00:00:00.62 bitrate=3356.0kbits/s speed=0.0248x elapsed=0:00:25.20    \nframe=   18 fps=0.7 q=34.5 size=     256KiB time=00:00:00.66 bitrate=3146.3kbits/s speed=0.0259x elapsed=0:00:25.72    \nframe=   19 fps=0.7 q=27.7 size=     256KiB time=00:00:00.70 bitrate=2961.2kbits/s speed=0.027x elapsed=0:00:26.24    \nframe=   20 fps=0.7 q=31.8 size=     256KiB time=00:00:00.75 bitrate=2796.7kbits/s speed=0.028x elapsed=0:00:26.77    \nframe=   20 fps=0.7 q=31.8 size=     256KiB time=00:00:00.75 bitrate=2796.7kbits/s speed=0.0274x elapsed=0:00:27.34    \nframe=   20 fps=0.7 q=31.8 size=     256KiB time=00:00:00.75 bitrate=2796.7kbits/s speed=0.0269x elapsed=0:00:27.88    \nframe=   21 fps=0.7 q=34.0 size=     256KiB time=00:00:00.79 bitrate=2649.5kbits/s speed=0.0279x elapsed=0:00:28.38    \nframe=   21 fps=0.7 q=34.0 size=     256KiB time=00:00:00.79 bitrate=2649.5kbits/s speed=0.0274x elapsed=0:00:28.93    \nframe=   21 fps=0.7 q=34.0 size=     256KiB time=00:00:00.79 bitrate=2649.5kbits/s speed=0.0269x elapsed=0:00:29.45    \nframe=   21 fps=0.7 q=34.0 size=     256KiB time=00:00:00.79 bitrate=2649.5kbits/s speed=0.0264x elapsed=0:00:29.96    \nframe=   21 fps=0.7 q=34.0 size=     256KiB time=00:00:00.79 bitrate=2649.5kbits/s speed=0.026x elapsed=0:00:30.48    \nframe=   21 fps=0.7 q=34.0 size=     256KiB time=00:00:00.79 bitrate=2649.5kbits/s speed=0.0255x elapsed=0:00:31.01    \nframe=   22 fps=0.7 q=34.2 size=     256KiB time=00:00:00.83 bitrate=2517.0kbits/s speed=0.0264x elapsed=0:00:31.53    \nframe=   23 fps=0.7 q=27.8 size=     256KiB time=00:00:00.87 bitrate=2397.1kbits/s speed=0.0273x elapsed=0:00:32.05    \nframe=   24 fps=0.7 q=31.1 size=     512KiB time=00:00:00.91 bitrate=4576.0kbits/s speed=0.0281x elapsed=0:00:32.58    \nframe=   25 fps=0.8 q=34.6 size=     512KiB time=00:00:00.95 bitrate=4377.0kbits/s speed=0.029x elapsed=0:00:33.09    \nframe=   25 fps=0.7 q=34.6 size=     512KiB time=00:00:00.95 bitrate=4377.0kbits/s speed=0.0285x elapsed=0:00:33.61    \nframe=   25 fps=0.7 q=34.6 size=     512KiB time=00:00:00.95 bitrate=4377.0kbits/s speed=0.028x elapsed=0:00:34.16    \nframe=   25 fps=0.7 q=34.6 size=     512KiB time=00:00:00.95 bitrate=4377.0kbits/s speed=0.0276x elapsed=0:00:34.69    \nframe=   26 fps=0.7 q=34.7 size=     512KiB time=00:00:01.00 bitrate=4194.7kbits/s speed=0.0284x elapsed=0:00:35.21    \nframe=   26 fps=0.7 q=34.7 size=     512KiB time=00:00:01.00 bitrate=4194.7kbits/s speed=0.028x elapsed=0:00:35.73    \nframe=   27 fps=0.7 q=35.0 size=     512KiB time=00:00:01.04 bitrate=4026.9kbits/s speed=0.0287x elapsed=0:00:36.29    \nframe=   28 fps=0.8 q=27.8 size=     512KiB time=00:00:01.08 bitrate=3872.0kbits/s speed=0.0294x elapsed=0:00:36.83    \nframe=   28 fps=0.7 q=27.8 size=     512KiB time=00:00:01.08 bitrate=3872.0kbits/s speed=0.029x elapsed=0:00:37.36    \nframe=   29 fps=0.8 q=31.9 size=     512KiB time=00:00:01.12 bitrate=3728.6kbits/s speed=0.0297x elapsed=0:00:37.87    \nframe=   29 fps=0.8 q=31.9 size=     512KiB time=00:00:01.12 bitrate=3728.6kbits/s speed=0.0293x elapsed=0:00:38.39    \nframe=   29 fps=0.7 q=31.9 size=     512KiB time=00:00:01.12 bitrate=3728.6kbits/s speed=0.0289x elapsed=0:00:38.90    \nframe=   29 fps=0.7 q=31.9 size=     512KiB time=00:00:01.12 bitrate=3728.6kbits/s speed=0.0285x elapsed=0:00:39.42    \nframe=   30 fps=0.8 q=34.3 size=     512KiB time=00:00:01.16 bitrate=3595.4kbits/s speed=0.0292x elapsed=0:00:39.97    \nframe=   31 fps=0.8 q=34.3 size=     512KiB time=00:00:01.20 bitrate=3471.4kbits/s speed=0.0298x elapsed=0:00:40.48    \nframe=   31 fps=0.8 q=34.3 size=     512KiB time=00:00:01.20 bitrate=3471.4kbits/s speed=0.0295x elapsed=0:00:40.99    \nframe=   33 fps=0.8 q=31.8 size=     512KiB time=00:00:01.29 bitrate=3247.5kbits/s speed=0.0311x elapsed=0:00:41.52    \nframe=   33 fps=0.8 q=31.8 size=     512KiB time=00:00:01.29 bitrate=3247.5kbits/s speed=0.0307x elapsed=0:00:42.03    \nframe=   33 fps=0.8 q=31.8 size=     512KiB time=00:00:01.29 bitrate=3247.5kbits/s speed=0.0304x elapsed=0:00:42.54    \nframe=   33 fps=0.8 q=31.8 size=     512KiB time=00:00:01.29 bitrate=3247.5kbits/s speed=0.03x elapsed=0:00:43.06    \nframe=   33 fps=0.8 q=31.8 size=     512KiB time=00:00:01.29 bitrate=3247.5kbits/s speed=0.0296x elapsed=0:00:43.61    \nframe=   34 fps=0.8 q=34.8 size=     512KiB time=00:00:01.33 bitrate=3146.0kbits/s speed=0.0302x elapsed=0:00:44.14    \nframe=   34 fps=0.8 q=34.8 size=     512KiB time=00:00:01.33 bitrate=3146.0kbits/s speed=0.0299x elapsed=0:00:44.66    \nframe=   34 fps=0.8 q=34.8 size=     512KiB time=00:00:01.33 bitrate=3146.0kbits/s speed=0.0295x elapsed=0:00:45.19    \nframe=   34 fps=0.7 q=34.8 size=     512KiB time=00:00:01.33 bitrate=3146.0kbits/s speed=0.0292x elapsed=0:00:45.71    \nframe=   35 fps=0.8 q=34.4 size=     512KiB time=00:00:01.37 bitrate=3050.7kbits/s speed=0.0297x elapsed=0:00:46.24    \nframe=   35 fps=0.7 q=34.4 size=     512KiB time=00:00:01.37 bitrate=3050.7kbits/s speed=0.0294x elapsed=0:00:46.77    \nframe=   36 fps=0.8 q=27.6 size=     512KiB time=00:00:01.41 bitrate=2960.9kbits/s speed=0.03x elapsed=0:00:47.28    \nframe=   36 fps=0.8 q=27.6 size=     512KiB time=00:00:01.41 bitrate=2960.9kbits/s speed=0.0296x elapsed=0:00:47.81    \nframe=   36 fps=0.7 q=27.6 size=     512KiB time=00:00:01.41 bitrate=2960.9kbits/s speed=0.0293x elapsed=0:00:48.36    \nframe=   36 fps=0.7 q=27.6 size=     512KiB time=00:00:01.41 bitrate=2960.9kbits/s speed=0.029x elapsed=0:00:48.89    \nframe=   37 fps=0.7 q=31.8 size=     512KiB time=00:00:01.45 bitrate=2876.3kbits/s speed=0.0295x elapsed=0:00:49.44    \nframe=   37 fps=0.7 q=31.8 size=     512KiB time=00:00:01.45 bitrate=2876.3kbits/s speed=0.0292x elapsed=0:00:49.96    \nframe=   37 fps=0.7 q=31.8 size=     512KiB time=00:00:01.45 bitrate=2876.3kbits/s speed=0.0289x elapsed=0:00:50.48    \nframe=   38 fps=0.7 q=34.8 size=     512KiB time=00:00:01.50 bitrate=2796.4kbits/s speed=0.0294x elapsed=0:00:51.01    \nframe=   38 fps=0.7 q=34.8 size=     512KiB time=00:00:01.50 bitrate=2796.4kbits/s speed=0.0291x elapsed=0:00:51.53    \nframe=   40 fps=0.8 q=27.7 size=     768KiB time=00:00:01.58 bitrate=3973.8kbits/s speed=0.0304x elapsed=0:00:52.05    \nframe=   41 fps=0.8 q=31.9 size=     768KiB time=00:00:01.62 bitrate=3871.9kbits/s speed=0.0309x elapsed=0:00:52.57    \nframe=   41 fps=0.8 q=31.9 size=     768KiB time=00:00:01.62 bitrate=3871.9kbits/s speed=0.0306x elapsed=0:00:53.09    \nframe=   42 fps=0.8 q=34.8 size=     768KiB time=00:00:01.66 bitrate=3775.1kbits/s speed=0.0311x elapsed=0:00:53.60    \nframe=   43 fps=0.8 q=34.9 size=     768KiB time=00:00:01.70 bitrate=3683.0kbits/s speed=0.0316x elapsed=0:00:54.12    \nframe=   44 fps=0.8 q=27.9 size=     768KiB time=00:00:01.75 bitrate=3595.3kbits/s speed=0.032x elapsed=0:00:54.63    \nframe=   45 fps=0.8 q=31.9 size=     768KiB time=00:00:01.79 bitrate=3511.7kbits/s speed=0.0325x elapsed=0:00:55.15    \nframe=   45 fps=0.8 q=31.9 size=     768KiB time=00:00:01.79 bitrate=3511.7kbits/s speed=0.0322x elapsed=0:00:55.68    \nframe=   46 fps=0.8 q=35.3 size=     768KiB time=00:00:01.83 bitrate=3431.9kbits/s speed=0.0326x elapsed=0:00:56.19    \nframe=   48 fps=0.8 q=28.0 size=     768KiB time=00:00:01.91 bitrate=3282.7kbits/s speed=0.0338x elapsed=0:00:56.70    \nframe=   49 fps=0.9 q=33.3 size=     768KiB time=00:00:01.95 bitrate=3212.8kbits/s speed=0.0342x elapsed=0:00:57.21    \nframe=   50 fps=0.9 q=35.0 size=     768KiB time=00:00:02.00 bitrate=3145.9kbits/s speed=0.0346x elapsed=0:00:57.73    \nframe=   50 fps=0.9 q=35.0 size=     768KiB time=00:00:02.00 bitrate=3145.9kbits/s speed=0.0343x elapsed=0:00:58.25    \nframe=   50 fps=0.9 q=35.0 size=     768KiB time=00:00:02.00 bitrate=3145.9kbits/s speed=0.034x elapsed=0:00:58.78    \nframe=   51 fps=0.9 q=34.9 size=     768KiB time=00:00:02.04 bitrate=3081.7kbits/s speed=0.0344x elapsed=0:00:59.35    \nframe=   52 fps=0.9 q=35.0 size=     768KiB time=00:00:02.08 bitrate=3020.1kbits/s speed=0.0348x elapsed=0:00:59.90    \nframe=   53 fps=0.9 q=28.0 size=     768KiB time=00:00:02.12 bitrate=2960.9kbits/s speed=0.0352x elapsed=0:01:00.41    \nframe=   53 fps=0.9 q=28.0 size=     768KiB time=00:00:02.12 bitrate=2960.9kbits/s speed=0.0349x elapsed=0:01:00.94    \nframe=   54 fps=0.9 q=31.9 size=    1024KiB time=00:00:02.16 bitrate=3871.8kbits/s speed=0.0352x elapsed=0:01:01.46    \nframe=   55 fps=0.9 q=34.8 size=    1024KiB time=00:00:02.20 bitrate=3798.8kbits/s speed=0.0356x elapsed=0:01:02.00    \nframe=   55 fps=0.9 q=34.8 size=    1024KiB time=00:00:02.20 bitrate=3798.8kbits/s speed=0.0353x elapsed=0:01:02.53    \nframe=   56 fps=0.9 q=34.7 size=    1024KiB time=00:00:02.25 bitrate=3728.4kbits/s speed=0.0357x elapsed=0:01:03.04    \nframe=   56 fps=0.9 q=34.7 size=    1024KiB time=00:00:02.25 bitrate=3728.4kbits/s speed=0.0354x elapsed=0:01:03.60    \nframe=   56 fps=0.9 q=34.7 size=    1024KiB time=00:00:02.25 bitrate=3728.4kbits/s speed=0.0351x elapsed=0:01:04.12    \nframe=   57 fps=0.9 q=27.8 size=    1024KiB time=00:00:02.29 bitrate=3660.6kbits/s speed=0.0354x elapsed=0:01:04.65    \nframe=   57 fps=0.9 q=27.8 size=    1024KiB time=00:00:02.29 bitrate=3660.6kbits/s speed=0.0352x elapsed=0:01:05.16    \nframe=   58 fps=0.9 q=32.1 size=    1024KiB time=00:00:02.33 bitrate=3595.3kbits/s speed=0.0355x elapsed=0:01:05.70    \nframe=   58 fps=0.9 q=32.1 size=    1024KiB time=00:00:02.33 bitrate=3595.3kbits/s speed=0.0352x elapsed=0:01:06.30    \nframe=   58 fps=0.9 q=32.1 size=    1024KiB time=00:00:02.33 bitrate=3595.3kbits/s speed=0.0349x elapsed=0:01:06.80    \nframe=   59 fps=0.9 q=34.9 size=    1024KiB time=00:00:02.37 bitrate=3532.2kbits/s speed=0.0353x elapsed=0:01:07.33    \nframe=   60 fps=0.9 q=34.7 size=    1024KiB time=00:00:02.41 bitrate=3471.3kbits/s speed=0.0356x elapsed=0:01:07.84    \nframe=   61 fps=0.9 q=27.9 size=    1024KiB time=00:00:02.45 bitrate=3412.5kbits/s speed=0.036x elapsed=0:01:08.35    \nframe=   61 fps=0.9 q=27.9 size=    1024KiB time=00:00:02.45 bitrate=3412.5kbits/s speed=0.0357x elapsed=0:01:08.87    \nframe=   62 fps=0.9 q=32.1 size=    1024KiB time=00:00:02.50 bitrate=3355.6kbits/s speed=0.036x elapsed=0:01:09.39    \nframe=   62 fps=0.9 q=32.1 size=    1024KiB time=00:00:02.50 bitrate=3355.6kbits/s speed=0.0358x elapsed=0:01:09.92    \nframe=   63 fps=0.9 q=34.7 size=    1024KiB time=00:00:02.54 bitrate=3300.6kbits/s speed=0.0361x elapsed=0:01:10.45    \nframe=   63 fps=0.9 q=34.7 size=    1024KiB time=00:00:02.54 bitrate=3300.6kbits/s speed=0.0358x elapsed=0:01:10.99    \nframe=   64 fps=0.9 q=34.8 size=    1280KiB time=00:00:02.58 bitrate=4059.1kbits/s speed=0.0361x elapsed=0:01:11.52    \nframe=   65 fps=0.9 q=27.9 size=    1280KiB time=00:00:02.62 bitrate=3994.7kbits/s speed=0.0364x elapsed=0:01:12.05    \nframe=   66 fps=0.9 q=32.1 size=    1280KiB time=00:00:02.66 bitrate=3932.3kbits/s speed=0.0367x elapsed=0:01:12.57    \nframe=   66 fps=0.9 q=32.1 size=    1280KiB time=00:00:02.66 bitrate=3932.3kbits/s speed=0.0365x elapsed=0:01:13.11    \nframe=   67 fps=0.9 q=34.8 size=    1280KiB time=00:00:02.70 bitrate=3871.8kbits/s speed=0.0368x elapsed=0:01:13.66    \nframe=   68 fps=0.9 q=34.6 size=    1280KiB time=00:00:02.75 bitrate=3813.1kbits/s speed=0.037x elapsed=0:01:14.22    \nframe=   68 fps=0.9 q=34.6 size=    1280KiB time=00:00:02.75 bitrate=3813.1kbits/s speed=0.0368x elapsed=0:01:14.75    \nframe=   69 fps=0.9 q=27.0 size=    1280KiB time=00:00:02.79 bitrate=3756.2kbits/s speed=0.0371x elapsed=0:01:15.26    \nframe=   69 fps=0.9 q=27.0 size=    1280KiB time=00:00:02.79 bitrate=3756.2kbits/s speed=0.0368x elapsed=0:01:15.80    \nframe=   70 fps=0.9 q=32.9 size=    1280KiB time=00:00:02.83 bitrate=3701.0kbits/s speed=0.0371x elapsed=0:01:16.33    \nframe=   71 fps=0.9 q=33.9 size=    1280KiB time=00:00:02.87 bitrate=3647.3kbits/s speed=0.0374x elapsed=0:01:16.87    \nframe=   71 fps=0.9 q=33.9 size=    1280KiB time=00:00:02.87 bitrate=3647.3kbits/s speed=0.0372x elapsed=0:01:17.38    \nframe=   71 fps=0.9 q=33.9 size=    1280KiB time=00:00:02.87 bitrate=3647.3kbits/s speed=0.0369x elapsed=0:01:17.93    \nframe=   72 fps=0.9 q=34.2 size=    1280KiB time=00:00:02.91 bitrate=3595.2kbits/s speed=0.0372x elapsed=0:01:18.44    \nframe=   72 fps=0.9 q=34.2 size=    1280KiB time=00:00:02.91 bitrate=3595.2kbits/s speed=0.0369x elapsed=0:01:18.97    \nframe=   73 fps=0.9 q=34.4 size=    1280KiB time=00:00:02.95 bitrate=3544.6kbits/s speed=0.0372x elapsed=0:01:19.49    \nframe=   74 fps=0.9 q=28.1 size=    1280KiB time=00:00:03.00 bitrate=3495.4kbits/s speed=0.0375x elapsed=0:01:20.02    \nframe=   75 fps=0.9 q=28.5 size=    1280KiB time=00:00:03.04 bitrate=3447.5kbits/s speed=0.0378x elapsed=0:01:20.56    \nframe=   75 fps=0.9 q=28.5 size=    1280KiB time=00:00:03.04 bitrate=3447.5kbits/s speed=0.0375x elapsed=0:01:21.11    \nframe=   76 fps=0.9 q=34.3 size=    1536KiB time=00:00:03.08 bitrate=4081.1kbits/s speed=0.0378x elapsed=0:01:21.64    \nframe=   76 fps=0.9 q=34.3 size=    1536KiB time=00:00:03.08 bitrate=4081.1kbits/s speed=0.0375x elapsed=0:01:22.15    \nframe=   77 fps=0.9 q=34.6 size=    1536KiB time=00:00:03.12 bitrate=4026.6kbits/s speed=0.0378x elapsed=0:01:22.68    \nframe=   77 fps=0.9 q=34.6 size=    1536KiB time=00:00:03.12 bitrate=4026.6kbits/s speed=0.0376x elapsed=0:01:23.20    \nframe=   78 fps=0.9 q=35.2 size=    1536KiB time=00:00:03.16 bitrate=3973.7kbits/s speed=0.0378x elapsed=0:01:23.72    \nframe=   78 fps=0.9 q=35.2 size=    1536KiB time=00:00:03.16 bitrate=3973.7kbits/s speed=0.0376x elapsed=0:01:24.25    \nframe=   79 fps=0.9 q=28.1 size=    1536KiB time=00:00:03.20 bitrate=3922.1kbits/s speed=0.0378x elapsed=0:01:24.79    \nframe=   80 fps=0.9 q=32.5 size=    1536KiB time=00:00:03.25 bitrate=3871.8kbits/s speed=0.0381x elapsed=0:01:25.31    \nframe=   81 fps=0.9 q=35.0 size=    1536KiB time=00:00:03.29 bitrate=3822.8kbits/s speed=0.0384x elapsed=0:01:25.82    \nframe=   82 fps=0.9 q=34.8 size=    1536KiB time=00:00:03.33 bitrate=3775.0kbits/s speed=0.0386x elapsed=0:01:26.34    \nframe=   82 fps=0.9 q=34.8 size=    1536KiB time=00:00:03.33 bitrate=3775.0kbits/s speed=0.0384x elapsed=0:01:26.87    \nframe=   83 fps=0.9 q=27.8 size=    1536KiB time=00:00:03.37 bitrate=3728.4kbits/s speed=0.0386x elapsed=0:01:27.39    \nframe=   83 fps=0.9 q=27.8 size=    1536KiB time=00:00:03.37 bitrate=3728.4kbits/s speed=0.0384x elapsed=0:01:27.91    \nframe=   84 fps=0.9 q=32.1 size=    1536KiB time=00:00:03.41 bitrate=3682.9kbits/s speed=0.0386x elapsed=0:01:28.43    \nframe=   84 fps=0.9 q=32.1 size=    1536KiB time=00:00:03.41 bitrate=3682.9kbits/s speed=0.0384x elapsed=0:01:28.96    \nframe=   85 fps=0.9 q=34.9 size=    1536KiB time=00:00:03.45 bitrate=3638.5kbits/s speed=0.0386x elapsed=0:01:29.50    \nframe=   86 fps=1.0 q=34.6 size=    1536KiB time=00:00:03.50 bitrate=3595.2kbits/s speed=0.0389x elapsed=0:01:30.03    \nframe=   86 fps=0.9 q=34.6 size=    1536KiB time=00:00:03.50 bitrate=3595.2kbits/s speed=0.0386x elapsed=0:01:30.55    \nframe=   87 fps=1.0 q=26.6 size=    1536KiB time=00:00:03.54 bitrate=3552.9kbits/s speed=0.0389x elapsed=0:01:31.09    \nframe=   88 fps=1.0 q=30.6 size=    1792KiB time=00:00:03.58 bitrate=4096.9kbits/s speed=0.0391x elapsed=0:01:31.61    \nframe=   89 fps=1.0 q=34.6 size=    1792KiB time=00:00:03.62 bitrate=4049.8kbits/s speed=0.0393x elapsed=0:01:32.13    \nframe=   90 fps=1.0 q=34.4 size=    1792KiB time=00:00:03.66 bitrate=4003.7kbits/s speed=0.0396x elapsed=0:01:32.65    \nframe=   90 fps=1.0 q=34.4 size=    1792KiB time=00:00:03.66 bitrate=4003.7kbits/s speed=0.0393x elapsed=0:01:33.20    \nframe=   91 fps=1.0 q=34.6 size=    1792KiB time=00:00:03.70 bitrate=3958.8kbits/s speed=0.0396x elapsed=0:01:33.72    \nframe=   91 fps=1.0 q=34.6 size=    1792KiB time=00:00:03.70 bitrate=3958.8kbits/s speed=0.0393x elapsed=0:01:34.24    \nframe=   93 fps=1.0 q=31.5 size=    1792KiB time=00:00:03.79 bitrate=3871.8kbits/s speed=0.04x elapsed=0:01:34.75    \nframe=   93 fps=1.0 q=31.5 size=    1792KiB time=00:00:03.79 bitrate=3871.8kbits/s speed=0.0398x elapsed=0:01:35.29    \nframe=   94 fps=1.0 q=34.3 size=    1792KiB time=00:00:03.83 bitrate=3829.7kbits/s speed=0.04x elapsed=0:01:35.82    \nframe=   95 fps=1.0 q=34.5 size=    1792KiB time=00:00:03.87 bitrate=3788.5kbits/s speed=0.0402x elapsed=0:01:36.32    \nframe=   95 fps=1.0 q=34.5 size=    1792KiB time=00:00:03.87 bitrate=3788.5kbits/s speed=0.04x elapsed=0:01:36.85    \nframe=   96 fps=1.0 q=27.0 size=    1792KiB time=00:00:03.91 bitrate=3748.2kbits/s speed=0.0402x elapsed=0:01:37.37    \nframe=   96 fps=1.0 q=27.0 size=    1792KiB time=00:00:03.91 bitrate=3748.2kbits/s speed=0.04x elapsed=0:01:37.92    \nframe=   96 fps=1.0 q=27.0 size=    1792KiB time=00:00:03.91 bitrate=3748.2kbits/s speed=0.0398x elapsed=0:01:38.48    \nframe=   97 fps=1.0 q=32.0 size=    1792KiB time=00:00:03.95 bitrate=3708.7kbits/s speed=0.04x elapsed=0:01:39.02    \nframe=   97 fps=1.0 q=32.0 size=    1792KiB time=00:00:03.95 bitrate=3708.7kbits/s speed=0.0398x elapsed=0:01:39.55    \nframe=   99 fps=1.0 q=34.5 size=    1792KiB time=00:00:04.04 bitrate=3632.3kbits/s speed=0.0404x elapsed=0:01:40.07    \nframe=  101 fps=1.0 q=33.1 size=    2048KiB time=00:00:04.12 bitrate=4067.3kbits/s speed=0.041x elapsed=0:01:40.59    \nframe=  103 fps=1.0 q=34.1 size=    2048KiB time=00:00:04.20 bitrate=3986.7kbits/s speed=0.0416x elapsed=0:01:41.11    \nframe=  105 fps=1.0 q=26.8 size=    2048KiB time=00:00:04.29 bitrate=3909.3kbits/s speed=0.0422x elapsed=0:01:41.61    \nframe=  106 fps=1.0 q=31.4 size=    2048KiB time=00:00:04.33 bitrate=3871.7kbits/s speed=0.0424x elapsed=0:01:42.15    \nframe=  108 fps=1.1 q=34.3 size=    2048KiB time=00:00:04.41 bitrate=3798.7kbits/s speed=0.043x elapsed=0:01:42.67    \nframe=  111 fps=1.1 q=34.0 size=    2048KiB time=00:00:04.54 bitrate=3694.1kbits/s speed=0.044x elapsed=0:01:43.18    \nframe=  112 fps=1.1 q=33.5 size=    2048KiB time=00:00:04.58 bitrate=3660.6kbits/s speed=0.0442x elapsed=0:01:43.70    \nframe=  114 fps=1.1 q=32.0 size=    2304KiB time=00:00:04.66 bitrate=4044.6kbits/s speed=0.0448x elapsed=0:01:44.22    \nframe=  115 fps=1.1 q=33.2 size=    2304KiB time=00:00:04.70 bitrate=4008.8kbits/s speed=0.045x elapsed=0:01:44.73    \nframe=  117 fps=1.1 q=33.2 size=    2304KiB time=00:00:04.79 bitrate=3939.1kbits/s speed=0.0455x elapsed=0:01:45.24    \nframe=  119 fps=1.1 q=27.5 size=    2304KiB time=00:00:04.87 bitrate=3871.7kbits/s speed=0.0461x elapsed=0:01:45.76    \nframe=  121 fps=1.1 q=33.5 size=    2304KiB time=00:00:04.95 bitrate=3806.7kbits/s speed=0.0467x elapsed=0:01:46.28    \nframe=  124 fps=1.2 q=31.1 size=    2304KiB time=00:00:05.08 bitrate=3713.1kbits/s speed=0.0476x elapsed=0:01:46.80    \nframe=  126 fps=1.2 q=33.9 size=    2304KiB time=00:00:05.16 bitrate=3653.2kbits/s speed=0.0481x elapsed=0:01:47.32    \nframe=  128 fps=1.2 q=30.0 size=    2560KiB time=00:00:05.25 bitrate=3994.6kbits/s speed=0.0487x elapsed=0:01:47.84    \nframe=  129 fps=1.2 q=33.9 size=    2560KiB time=00:00:05.29 bitrate=3963.2kbits/s speed=0.0488x elapsed=0:01:48.35    \nframe=  132 fps=1.2 q=26.2 size=    2560KiB time=00:00:05.41 bitrate=3871.7kbits/s speed=0.0498x elapsed=0:01:48.87    \nframe=  134 fps=1.2 q=33.3 size=    2560KiB time=00:00:05.50 bitrate=3813.1kbits/s speed=0.0503x elapsed=0:01:49.38    \nframe=  135 fps=1.2 q=33.1 size=    2560KiB time=00:00:05.54 bitrate=3784.4kbits/s speed=0.0504x elapsed=0:01:49.90    \nframe=  138 fps=1.2 q=27.2 size=    2560KiB time=00:00:05.66 bitrate=3700.9kbits/s speed=0.0513x elapsed=0:01:50.42    \nframe=  140 fps=1.3 q=33.2 size=    2816KiB time=00:00:05.75 bitrate=4012.0kbits/s speed=0.0518x elapsed=0:01:50.94    \nframe=  143 fps=1.3 q=32.0 size=    2816KiB time=00:00:05.87 bitrate=3926.6kbits/s speed=0.0527x elapsed=0:01:51.46    \nframe=  145 fps=1.3 q=33.3 size=    2816KiB time=00:00:05.95 bitrate=3871.7kbits/s speed=0.0532x elapsed=0:01:51.97    \nframe=  148 fps=1.3 q=30.3 size=    2816KiB time=00:00:06.08 bitrate=3792.2kbits/s speed=0.0541x elapsed=0:01:52.48    \nframe=  150 fps=1.3 q=32.8 size=    2816KiB time=00:00:06.16 bitrate=3740.9kbits/s speed=0.0546x elapsed=0:01:52.99    \nframe=  153 fps=1.3 q=32.9 size=    3072KiB time=00:00:06.29 bitrate=3999.9kbits/s speed=0.0554x elapsed=0:01:53.52    \nframe=  154 fps=1.4 q=33.7 size=    3072KiB time=00:00:06.33 bitrate=3973.6kbits/s speed=0.0555x elapsed=0:01:54.02    \nframe=  157 fps=1.4 q=30.3 size=    3072KiB time=00:00:06.45 bitrate=3896.7kbits/s speed=0.0564x elapsed=0:01:54.55    \nframe=  160 fps=1.4 q=26.5 size=    3072KiB time=00:00:06.58 bitrate=3822.7kbits/s speed=0.0572x elapsed=0:01:55.05    \nframe=  162 fps=1.4 q=32.9 size=    3072KiB time=00:00:06.66 bitrate=3774.9kbits/s speed=0.0577x elapsed=0:01:55.58    \nframe=  165 fps=1.4 q=30.6 size=    3072KiB time=00:00:06.79 bitrate=3705.4kbits/s speed=0.0585x elapsed=0:01:56.09    \nframe=  167 fps=1.4 q=32.7 size=    3328KiB time=00:00:06.87 bitrate=3965.6kbits/s speed=0.059x elapsed=0:01:56.61    \nframe=  169 fps=1.4 q=31.3 size=    3328KiB time=00:00:06.95 bitrate=3918.1kbits/s speed=0.0594x elapsed=0:01:57.13    \nframe=  172 fps=1.5 q=31.8 size=    3328KiB time=00:00:07.08 bitrate=3848.9kbits/s speed=0.0602x elapsed=0:01:57.64    \nframe=  175 fps=1.5 q=32.3 size=    3328KiB time=00:00:07.20 bitrate=3782.2kbits/s speed=0.061x elapsed=0:01:58.16    \nframe=  178 fps=1.5 q=27.0 size=    3328KiB time=00:00:07.33 bitrate=3717.7kbits/s speed=0.0618x elapsed=0:01:58.67    \nframe=  180 fps=1.5 q=33.2 size=    3584KiB time=00:00:07.41 bitrate=3958.7kbits/s speed=0.0622x elapsed=0:01:59.18    \nframe=  184 fps=1.5 q=32.7 size=    3584KiB time=00:00:07.58 bitrate=3871.7kbits/s speed=0.0633x elapsed=0:01:59.70    \nframe=  187 fps=1.6 q=26.8 size=    3584KiB time=00:00:07.70 bitrate=3808.9kbits/s speed=0.0641x elapsed=0:02:00.21    \nframe=  189 fps=1.6 q=33.3 size=    3584KiB time=00:00:07.79 bitrate=3768.2kbits/s speed=0.0645x elapsed=0:02:00.73    \nframe=  192 fps=1.6 q=33.2 size=    3840KiB time=00:00:07.91 bitrate=3973.6kbits/s speed=0.0653x elapsed=0:02:01.25    \nframe=  195 fps=1.6 q=27.2 size=    3840KiB time=00:00:08.04 bitrate=3911.8kbits/s speed=0.066x elapsed=0:02:01.76    \nframe=  198 fps=1.6 q=33.7 size=    3840KiB time=00:00:08.16 bitrate=3852.0kbits/s speed=0.0668x elapsed=0:02:02.28    \nframe=  201 fps=1.6 q=34.1 size=    3840KiB time=00:00:08.29 bitrate=3793.9kbits/s speed=0.0675x elapsed=0:02:02.80    \nframe=  204 fps=1.7 q=27.0 size=    4096KiB time=00:00:08.41 bitrate=3986.7kbits/s speed=0.0682x elapsed=0:02:03.32    \nframe=  208 fps=1.7 q=26.6 size=    4096KiB time=00:00:08.58 bitrate=3909.3kbits/s speed=0.0693x elapsed=0:02:03.83    \nframe=  211 fps=1.7 q=34.0 size=    4096KiB time=00:00:08.70 bitrate=3853.2kbits/s speed=0.07x elapsed=0:02:04.34    \nframe=  214 fps=1.7 q=33.3 size=    4096KiB time=00:00:08.83 bitrate=3798.7kbits/s speed=0.0707x elapsed=0:02:04.86    \nframe=  217 fps=1.7 q=29.3 size=    4352KiB time=00:00:08.95 bitrate=3979.8kbits/s speed=0.0714x elapsed=0:02:05.38    \nframe=  220 fps=1.7 q=32.6 size=    4352KiB time=00:00:09.08 bitrate=3925.0kbits/s speed=0.0721x elapsed=0:02:05.90    \nframe=  224 fps=1.8 q=32.6 size=    4352KiB time=00:00:09.25 bitrate=3854.3kbits/s speed=0.0732x elapsed=0:02:06.42    \nframe=  228 fps=1.8 q=33.5 size=    4608KiB time=00:00:09.41 bitrate=4008.8kbits/s speed=0.0742x elapsed=0:02:06.94    \nframe=  232 fps=1.8 q=27.0 size=    4608KiB time=00:00:09.58 bitrate=3939.0kbits/s speed=0.0752x elapsed=0:02:07.46    \nframe=  235 fps=1.8 q=29.8 size=    4608KiB time=00:00:09.70 bitrate=3888.3kbits/s speed=0.0759x elapsed=0:02:07.97    \n[mp4 @ 000001f11627b780] Starting second pass: moving the moov atom to the beginning of the file\n[out#0/mp4 @ 000001f11627b680] video:4838KiB audio:0KiB subtitle:0KiB other streams:0KiB global headers:2KiB muxing overhead: 0.128429%\nframe=  240 fps=1.9 q=27.6 Lsize=    4844KiB time=00:00:09.91 bitrate=4001.4kbits/s speed=0.0773x elapsed=0:02:08.31    \nx265 [info]: frame I:      1, Avg QP:26.79  kb/s: 30467.14\nx265 [info]: frame P:     54, Avg QP:27.30  kb/s: 12319.06\nx265 [info]: frame B:    185, Avg QP:32.87  kb/s: 1379.65 \nx265 [info]: Weighted P-Frames: Y:0.0% UV:0.0%\n\nencoded 240 frames in 128.16s (1.87 fps), 3962.21 kb/s, Avg QP:31.59\n",
  "seconds": 128.47821402549744,
  "probe_out": {}
}